<svg width="100%" viewBox="0 0 680 230" xmlns="http://www.w3.org/2000/svg">
  <defs>
    <marker id="arrow" viewBox="0 0 10 10" refX="8" refY="5" markerWidth="6" markerHeight="6" orient="auto-start-reverse">
      <path d="M2 1L8 5L2 9" fill="none" stroke="context-stroke" stroke-width="1.5" stroke-linecap="round" stroke-linejoin="round"/>
    </marker>
    <linearGradient id="bg-grad" x1="0" y1="0" x2="1" y2="1">
      <stop offset="0%" stop-color="#0f0f1a"/>
      <stop offset="100%" stop-color="#111827"/>
    </linearGradient>
    <linearGradient id="accent-grad" x1="0" y1="0" x2="1" y2="0">
      <stop offset="0%" stop-color="#6366f1"/>
      <stop offset="100%" stop-color="#22d3ee"/>
    </linearGradient>
    <linearGradient id="text-grad" x1="0" y1="0" x2="1" y2="0">
      <stop offset="0%" stop-color="#a5b4fc"/>
      <stop offset="60%" stop-color="#67e8f9"/>
      <stop offset="100%" stop-color="#a5b4fc"/>
    </linearGradient>
  <mask id="imagine-text-gaps-07y0vq" maskUnits="userSpaceOnUse"><rect x="0" y="0" width="680" height="230" fill="white"/><rect x="240.20057678222656" y="33.389949798583984" width="199.59884643554688" height="17.503703117370605" fill="black" rx="2"/><rect x="278.3229064941406" y="59.87144470214844" width="123.35417175292969" height="100.45501708984375" fill="black" rx="2"/><rect x="226.92294311523438" y="147.53173828125" width="226.1541290283203" height="21.36190414428711" fill="black" rx="2"/><rect x="179.170166015625" y="182.42539978027344" width="321.65966796875" height="18.468253135681152" fill="black" rx="2"/></mask></defs>
  <rect width="680" height="220" fill="url(#bg-grad)" rx="12"/>
  <g stroke="#ffffff" stroke-width="0.3" opacity="0.06">
    <line x1="0" y1="44" x2="680" y2="44" mask="url(#imagine-text-gaps-07y0vq)"/>
    <line x1="0" y1="88" x2="680" y2="88" mask="url(#imagine-text-gaps-07y0vq)"/>
    <line x1="0" y1="132" x2="680" y2="132" mask="url(#imagine-text-gaps-07y0vq)"/>
    <line x1="0" y1="176" x2="680" y2="176"/>
    <line x1="68" y1="0" x2="68" y2="220"/>
    <line x1="136" y1="0" x2="136" y2="220"/>
    <line x1="204" y1="0" x2="204" y2="220" mask="url(#imagine-text-gaps-07y0vq)"/>
    <line x1="272" y1="0" x2="272" y2="220" mask="url(#imagine-text-gaps-07y0vq)"/>
    <line x1="340" y1="0" x2="340" y2="220" mask="url(#imagine-text-gaps-07y0vq)"/>
    <line x1="408" y1="0" x2="408" y2="220" mask="url(#imagine-text-gaps-07y0vq)"/>
    <line x1="476" y1="0" x2="476" y2="220" mask="url(#imagine-text-gaps-07y0vq)"/>
    <line x1="544" y1="0" x2="544" y2="220"/>
    <line x1="612" y1="0" x2="612" y2="220"/>
  </g>
  <ellipse cx="90" cy="110" rx="70" ry="70" fill="#6366f1" opacity="0.12"/>
  <ellipse cx="600" cy="110" rx="60" ry="60" fill="#22d3ee" opacity="0.10"/>
  <path d="M24 14 L14 14 L14 34" fill="none" stroke="#6366f1" stroke-width="1.5" stroke-linecap="round"/>
  <path d="M656 14 L666 14 L666 34" fill="none" stroke="#22d3ee" stroke-width="1.5" stroke-linecap="round"/>
  <path d="M24 206 L14 206 L14 186" fill="none" stroke="#6366f1" stroke-width="1.5" stroke-linecap="round"/>
  <path d="M656 206 L666 206 L666 186" fill="none" stroke="#22d3ee" stroke-width="1.5" stroke-linecap="round"/>
  <rect x="14" y="10" width="652" height="2" rx="1" fill="url(#accent-grad)" opacity="0.5"/>
  <rect x="14" y="208" width="652" height="2" rx="1" fill="url(#accent-grad)" opacity="0.5"/>
  <circle cx="60" cy="55" r="3" fill="#6366f1" opacity="0.6"/>
  <circle cx="120" cy="40" r="2" fill="#22d3ee" opacity="0.5"/>
  <circle cx="160" cy="70" r="2" fill="#a5b4fc" opacity="0.4"/>
  <circle cx="520" cy="40" r="2" fill="#22d3ee" opacity="0.5"/>
  <circle cx="580" cy="65" r="3" fill="#6366f1" opacity="0.6"/>
  <circle cx="630" cy="45" r="2" fill="#a5b4fc" opacity="0.4"/>
  <circle cx="60" cy="175" r="2" fill="#22d3ee" opacity="0.4"/>
  <circle cx="110" cy="185" r="3" fill="#6366f1" opacity="0.5"/>
  <circle cx="580" cy="175" r="2" fill="#a5b4fc" opacity="0.4"/>
  <circle cx="625" cy="185" r="3" fill="#22d3ee" opacity="0.5"/>
  <line x1="60" y1="55" x2="120" y2="40" stroke="#6366f1" stroke-width="0.6" opacity="0.35"/>
  <line x1="120" y1="40" x2="160" y2="70" stroke="#a5b4fc" stroke-width="0.6" opacity="0.25"/>
  <line x1="520" y1="40" x2="580" y2="65" stroke="#22d3ee" stroke-width="0.6" opacity="0.35"/>
  <line x1="580" y1="65" x2="630" y2="45" stroke="#a5b4fc" stroke-width="0.6" opacity="0.25"/>
  <line x1="60" y1="175" x2="110" y2="185" stroke="#6366f1" stroke-width="0.6" opacity="0.3"/>
  <line x1="580" y1="175" x2="625" y2="185" stroke="#22d3ee" stroke-width="0.6" opacity="0.3"/>
  <rect x="228" y="32" width="224" height="20" rx="10" fill="#ffffff" fill-opacity="0.05" stroke="#6366f1" stroke-width="0.6" stroke-opacity="0.6"/>
  <text font-family="system-ui, sans-serif" font-size="10" font-weight="500" fill="#a5b4fc" fill-opacity="0.9" text-anchor="middle" x="340" y="46" letter-spacing="1.5">COLLEGE OF SOUTHERN NEVADA</text>
  <text font-family="system-ui, sans-serif" font-size="72" font-weight="700" fill="url(#text-grad)" text-anchor="middle" x="340" y="140" letter-spacing="-2" opacity="0.95">LC3</text>
  <text font-family="system-ui, sans-serif" font-size="13" font-weight="400" fill="#94a3b8" text-anchor="middle" x="340" y="164" letter-spacing="3">LOWCODE  ·  CLOUD  ·  CLUB</text>
  <text font-family="system-ui, sans-serif" font-size="11" font-weight="400" fill="#475569" text-anchor="middle" x="340" y="196" letter-spacing="0.5">Building the future through code, collaboration &amp; curiosity</text>
  <g opacity="0.5" transform="translate(192, 105)">
    <ellipse cx="18" cy="14" rx="12" ry="9" fill="none" stroke="#6366f1" stroke-width="1"/>
    <ellipse cx="8" cy="18" rx="7" ry="6" fill="none" stroke="#6366f1" stroke-width="1"/>
    <ellipse cx="28" cy="18" rx="7" ry="6" fill="none" stroke="#6366f1" stroke-width="1"/>
    <rect x="2" y="18" width="32" height="8" fill="url(#bg-grad)"/>
  </g>
  <g opacity="0.5" transform="translate(462, 105)">
    <ellipse cx="18" cy="14" rx="12" ry="9" fill="none" stroke="#22d3ee" stroke-width="1"/>
    <ellipse cx="8" cy="18" rx="7" ry="6" fill="none" stroke="#22d3ee" stroke-width="1"/>
    <ellipse cx="28" cy="18" rx="7" ry="6" fill="none" stroke="#22d3ee" stroke-width="1"/>
    <rect x="2" y="18" width="32" height="8" fill="#111827"/>
  </g>
</svg>
