<svg width="100%" viewBox="0 0 680 220" xmlns="http://www.w3.org/2000/svg">
  <defs>
    <marker id="arrow" viewBox="0 0 10 10" refX="8" refY="5" markerWidth="6" markerHeight="6" orient="auto-start-reverse">
      <path d="M2 1L8 5L2 9" fill="none" stroke="context-stroke" stroke-width="1.5" stroke-linecap="round" stroke-linejoin="round"/>
    </marker>
    <linearGradient id="bg-grad" x1="0" y1="0" x2="1" y2="1">
      <stop offset="0%" stop-color="#0f0f1a"/>
      <stop offset="100%" stop-color="#111827"/>
    </linearGradient>
    <linearGradient id="accent-grad" x1="0" y1="0" x2="1" y2="0">
      <stop offset="0%" stop-color="#6366f1"/>
      <stop offset="100%" stop-color="#22d3ee"/>
    </linearGradient>
    <linearGradient id="text-grad" x1="0" y1="0" x2="1" y2="0">
      <stop offset="0%" stop-color="#a5b4fc"/>
      <stop offset="60%" stop-color="#67e8f9"/>
      <stop offset="100%" stop-color="#a5b4fc"/>
    </linearGradient>
    <style>
      @keyframes pulse-left { 0%, 100% { opacity: 0.12; } 50% { opacity: 0.26; } }
      @keyframes pulse-right { 0%, 100% { opacity: 0.10; } 50% { opacity: 0.22; } }
      @keyframes dash-crawl { to { stroke-dashoffset: -20; } }
      @keyframes flicker-dot { 0%, 100% { opacity: 0.5; } 50% { opacity: 1; } }
      @keyframes bar-glow { 0%, 100% { opacity: 0.4; } 50% { opacity: 0.9; } }
    </style>
  </defs>
  <rect width="680" height="220" fill="url(#bg-grad)" rx="12"/>
  <g stroke="#ffffff" stroke-width="0.3" opacity="0.06">
    <line x1="0" y1="44" x2="680" y2="44"/><line x1="0" y1="88" x2="680" y2="88"/>
    <line x1="0" y1="132" x2="680" y2="132"/><line x1="0" y1="176" x2="680" y2="176"/>
    <line x1="68" y1="0" x2="68" y2="220"/><line x1="136" y1="0" x2="136" y2="220"/>
    <line x1="204" y1="0" x2="204" y2="220"/><line x1="272" y1="0" x2="272" y2="220"/>
    <line x1="340" y1="0" x2="340" y2="220"/><line x1="408" y1="0" x2="408" y2="220"/>
    <line x1="476" y1="0" x2="476" y2="220"/><line x1="544" y1="0" x2="544" y2="220"/>
    <line x1="612" y1="0" x2="612" y2="220"/>
  </g>
  <ellipse cx="90" cy="110" rx="70" ry="70" fill="#6366f1" style="animation: pulse-left 4s ease-in-out infinite"/>
  <ellipse cx="600" cy="110" rx="60" ry="60" fill="#22d3ee" style="animation: pulse-right 4s ease-in-out infinite 1s"/>
  <rect x="14" y="10" width="652" height="2" rx="1" fill="url(#accent-grad)" style="animation: bar-glow 3s ease-in-out infinite"/>
  <rect x="14" y="208" width="652" height="2" rx="1" fill="url(#accent-grad)" style="animation: bar-glow 3s ease-in-out infinite 1.5s"/>
  <path d="M24 14 L14 14 L14 34" fill="none" stroke="#6366f1" stroke-width="1.5" stroke-linecap="round"/>
  <path d="M656 14 L666 14 L666 34" fill="none" stroke="#22d3ee" stroke-width="1.5" stroke-linecap="round"/>
  <path d="M24 206 L14 206 L14 186" fill="none" stroke="#6366f1" stroke-width="1.5" stroke-linecap="round"/>
  <path d="M656 206 L666 206 L666 186" fill="none" stroke="#22d3ee" stroke-width="1.5" stroke-linecap="round"/>
  <circle cx="60" cy="55" r="3" fill="#6366f1" style="animation: flicker-dot 3s ease-in-out infinite 0.0s"/>
  <circle cx="120" cy="40" r="2" fill="#22d3ee" style="animation: flicker-dot 3s ease-in-out infinite 0.5s"/>
  <circle cx="160" cy="70" r="2" fill="#a5b4fc" style="animation: flicker-dot 3s ease-in-out infinite 1.0s"/>
  <circle cx="520" cy="40" r="2" fill="#22d3ee" style="animation: flicker-dot 3s ease-in-out infinite 0.3s"/>
  <circle cx="580" cy="65" r="3" fill="#6366f1" style="animation: flicker-dot 3s ease-in-out infinite 0.8s"/>
  <circle cx="630" cy="45" r="2" fill="#a5b4fc" style="animation: flicker-dot 3s ease-in-out infinite 1.3s"/>
  <circle cx="60" cy="175" r="2" fill="#22d3ee" style="animation: flicker-dot 3s ease-in-out infinite 0.6s"/>
  <circle cx="110" cy="185" r="3" fill="#6366f1" style="animation: flicker-dot 3s ease-in-out infinite 1.1s"/>
  <circle cx="580" cy="175" r="2" fill="#a5b4fc" style="animation: flicker-dot 3s ease-in-out infinite 0.4s"/>
  <circle cx="625" cy="185" r="3" fill="#22d3ee" style="animation: flicker-dot 3s ease-in-out infinite 0.9s"/>
  <line x1="60" y1="55" x2="120" y2="40" stroke="#6366f1" stroke-width="0.6" opacity="0.5" stroke-dasharray="4 4" style="animation: dash-crawl 2s linear infinite"/>
  <line x1="120" y1="40" x2="160" y2="70" stroke="#a5b4fc" stroke-width="0.6" opacity="0.35" stroke-dasharray="4 4" style="animation: dash-crawl 2.4s linear infinite"/>
  <line x1="520" y1="40" x2="580" y2="65" stroke="#22d3ee" stroke-width="0.6" opacity="0.5" stroke-dasharray="4 4" style="animation: dash-crawl 2s linear infinite 0.5s"/>
  <line x1="580" y1="65" x2="630" y2="45" stroke="#a5b4fc" stroke-width="0.6" opacity="0.35" stroke-dasharray="4 4" style="animation: dash-crawl 2.4s linear infinite 0.3s"/>
  <line x1="60" y1="175" x2="110" y2="185" stroke="#6366f1" stroke-width="0.6" opacity="0.4" stroke-dasharray="4 4" style="animation: dash-crawl 2.2s linear infinite 0.8s"/>
  <line x1="580" y1="175" x2="625" y2="185" stroke="#22d3ee" stroke-width="0.6" opacity="0.4" stroke-dasharray="4 4" style="animation: dash-crawl 2.2s linear infinite 0.2s"/>
  <rect x="228" y="32" width="224" height="20" rx="10" fill="#ffffff" fill-opacity="0.05" stroke="#6366f1" stroke-width="0.6" stroke-opacity="0.6"/>
  <text font-family="system-ui, sans-serif" font-size="10" font-weight="500" fill="#a5b4fc" fill-opacity="0.9" text-anchor="middle" x="340" y="46" letter-spacing="1.5">COLLEGE OF SOUTHERN NEVADA</text>
  <text font-family="system-ui, sans-serif" font-size="72" font-weight="700" fill="url(#text-grad)" text-anchor="middle" x="340" y="140" letter-spacing="-2" opacity="0.95">LC3</text>
  <text font-family="system-ui, sans-serif" font-size="13" font-weight="400" fill="#94a3b8" text-anchor="middle" x="340" y="164" letter-spacing="3">LOWCODE  ·  CLOUD  ·  CLUB</text>
  <text font-family="system-ui, sans-serif" font-size="11" font-weight="400" fill="#475569" text-anchor="middle" x="340" y="196" letter-spacing="0.5">Building the future through code, collaboration &amp; curiosity</text>
  <g opacity="0.5" transform="translate(192, 105)">
    <ellipse cx="18" cy="14" rx="12" ry="9" fill="none" stroke="#6366f1" stroke-width="1"/>
    <ellipse cx="8" cy="18" rx="7" ry="6" fill="none" stroke="#6366f1" stroke-width="1"/>
    <ellipse cx="28" cy="18" rx="7" ry="6" fill="none" stroke="#6366f1" stroke-width="1"/>
    <rect x="2" y="18" width="32" height="8" fill="#0f0f1a"/>
  </g>
  <g opacity="0.5" transform="translate(462, 105)">
    <ellipse cx="18" cy="14" rx="12" ry="9" fill="none" stroke="#22d3ee" stroke-width="1"/>
    <ellipse cx="8" cy="18" rx="7" ry="6" fill="none" stroke="#22d3ee" stroke-width="1"/>
    <ellipse cx="28" cy="18" rx="7" ry="6" fill="none" stroke="#22d3ee" stroke-width="1"/>
    <rect x="2" y="18" width="32" height="8" fill="#111827"/>
  </g>
</svg>
